<?xml version="1.0" standalone="no"?>
<!DOCTYPE svg PUBLIC "-//W3C//DTD SVG 20010904//EN"
 "http://www.w3.org/TR/2001/REC-SVG-20010904/DTD/svg10.dtd">
<svg version="1.0" xmlns="http://www.w3.org/2000/svg"
 width="1139.000000pt" height="496.000000pt" viewBox="0 0 1139.000000 496.000000"
 preserveAspectRatio="xMidYMid meet">

<g transform="translate(0.000000,496.000000) scale(0.100000,-0.100000)"
fill="#000000" stroke="none">
<path d="M575 4909 c-62 -57 -102 -124 -122 -203 -30 -123 11 -254 124 -396
33 -41 86 -99 118 -128 38 -35 68 -73 86 -112 39 -82 99 -168 172 -246 l62
-67 -40 7 c-216 35 -619 54 -779 37 -161 -18 -164 -19 -175 -55 -19 -58 -23
-132 -11 -192 41 -199 212 -316 520 -355 71 -9 112 -20 160 -44 118 -59 243
-91 430 -110 l55 -6 -57 -60 c-208 -218 -302 -484 -270 -762 21 -177 77 -349
165 -507 41 -72 730 -1100 735 -1095 2 2 -12 34 -31 71 -141 282 -259 668
-256 839 l1 50 9 -38 c19 -81 62 -140 124 -168 27 -13 32 -23 51 -100 34 -140
41 -141 83 -18 17 51 47 116 68 146 56 82 57 139 4 324 -48 169 -63 286 -51
385 14 111 70 239 70 161 0 -33 34 -128 64 -179 14 -24 57 -81 97 -128 63 -75
119 -167 119 -195 0 -5 -14 -39 -30 -73 -17 -35 -30 -70 -30 -78 0 -28 30 -13
57 27 l27 40 220 -3 c221 -3 221 -3 268 -31 139 -81 143 -261 8 -337 -44 -25
-50 -25 -297 -28 l-253 -3 0 -270 0 -269 100 0 100 0 0 170 0 170 143 0 c157
0 228 13 309 57 64 35 133 110 166 181 23 49 27 70 27 152 0 91 -2 100 -38
172 -59 121 -167 204 -296 228 -29 5 -120 10 -200 10 l-147 0 0 53 c-1 74 -28
123 -144 262 -55 66 -116 150 -135 187 l-35 66 53 75 c97 135 133 258 105 355
-9 28 -13 52 -9 52 5 0 43 -9 86 -20 84 -21 180 -26 233 -11 31 9 33 8 64 -37
40 -58 194 -222 227 -241 59 -33 218 15 342 104 46 33 49 34 76 20 45 -24 70
-18 115 26 24 22 59 51 78 63 19 13 41 31 49 40 7 9 21 16 31 16 10 0 23 7 30
15 7 9 29 15 51 15 47 0 133 40 188 87 44 37 124 136 141 175 11 23 14 24 61
14 43 -9 50 -14 59 -42 19 -58 113 -129 216 -164 105 -36 240 -17 275 38 11
17 20 19 74 14 58 -4 63 -3 99 28 20 18 49 54 64 79 24 42 27 55 27 146 0 89
-3 106 -28 157 -51 103 -158 176 -321 218 -44 11 -102 20 -130 20 -62 0 -165
-24 -209 -47 -71 -38 -93 -42 -210 -31 -95 9 -118 15 -152 38 -44 30 -126 60
-162 60 -28 0 -74 -22 -93 -45 -9 -11 -22 -14 -41 -10 -50 11 -110 -15 -170
-75 l-56 -55 -35 13 c-34 13 -36 16 -41 73 -12 112 -63 227 -160 357 -24 33
-31 53 -31 84 2 54 28 87 103 126 54 27 73 32 139 33 43 1 102 4 132 8 l55 7
-78 12 c-152 24 -270 12 -339 -33 -42 -28 -66 -67 -77 -128 l-8 -42 -17 38
c-13 30 -14 46 -6 75 16 61 75 137 165 212 47 40 85 74 85 76 0 8 -85 -39
-145 -79 -112 -76 -184 -170 -185 -240 0 -15 6 -43 14 -61 l14 -34 -36 -7
c-91 -17 -162 -81 -188 -170 l-16 -56 -36 8 c-108 23 -251 1 -351 -53 l-45
-25 -22 23 c-12 13 -83 93 -159 178 -191 215 -584 604 -740 734 -173 144 -402
296 -445 296 -6 0 -30 -18 -55 -41z m171 -95 c195 -122 369 -269 644 -544 201
-200 422 -436 384 -410 -12 8 -89 68 -170 133 -281 222 -501 370 -689 462
-137 67 -216 94 -308 103 l-71 7 -9 40 c-11 51 -4 111 17 156 24 51 75 109 95
109 10 0 58 -25 107 -56z m-76 -330 c170 -40 449 -221 825 -534 61 -50 115
-96 120 -101 6 -6 -87 39 -205 99 -219 112 -398 189 -503 216 -67 18 -110 49
-201 147 -58 63 -136 168 -136 183 0 10 31 7 100 -10z m313 -420 c84 -36 160
-76 297 -157 131 -78 420 -258 420 -263 0 -2 -10 -2 -22 1 -13 3 -104 21 -203
39 -167 31 -185 36 -250 76 -140 85 -337 259 -375 331 -11 20 -10 21 21 14 18
-4 68 -23 112 -41z m1795 -224 c42 -39 56 -80 56 -162 0 -43 -3 -80 -6 -83 -9
-10 -122 113 -140 153 -39 81 28 149 90 92z m-2093 -110 c225 -19 645 -81 845
-123 60 -13 41 -14 -270 -14 -540 0 -822 -40 -999 -140 l-50 -28 -31 30 c-43
41 -88 138 -96 207 l-6 56 48 7 c27 3 56 8 64 9 36 8 386 5 495 -4z m1710 -1
c38 -10 45 -16 60 -54 9 -24 34 -71 56 -105 29 -45 41 -75 45 -118 l7 -57 -24
21 c-55 49 -120 60 -178 29 -82 -42 -87 -175 -15 -376 14 -39 24 -72 22 -73
-15 -13 -81 -26 -127 -26 -112 0 -224 45 -297 117 -41 42 -84 109 -84 132 0 5
23 26 52 46 28 21 73 58 100 83 44 41 51 44 74 34 57 -27 141 -6 178 44 21 29
32 91 22 128 -10 39 -54 85 -96 97 -57 17 -105 4 -148 -41 -31 -31 -43 -37
-65 -33 -15 3 -27 9 -27 13 0 26 135 110 215 136 50 16 172 18 230 3z m1146
-104 c184 -93 266 -267 194 -412 -59 -118 -212 -243 -297 -243 -40 0 -100 27
-148 65 -19 15 -8 3 24 -27 35 -32 55 -57 49 -61 -16 -10 -52 23 -133 120 -87
104 -107 126 -95 103 16 -29 69 -95 114 -142 24 -26 41 -51 37 -55 -4 -4 -44
32 -89 81 -96 103 -96 103 -176 22 l-54 -55 28 -38 c15 -21 59 -68 98 -105 48
-46 68 -72 63 -83 -9 -25 -54 3 -126 82 -121 131 -145 193 -92 236 15 12 57
52 93 89 45 46 74 68 90 68 l23 0 -22 16 c-55 38 -45 124 25 223 60 85 147
117 193 71 40 -40 15 -137 -40 -155 -10 -3 -26 -19 -34 -35 -13 -27 -13 -29 2
-21 29 16 90 85 101 114 6 16 11 52 11 82 0 46 4 56 27 75 31 24 62 21 134
-15z m793 -19 c97 -31 154 -65 205 -122 51 -59 76 -136 67 -217 -7 -65 -22
-100 -64 -145 -54 -57 -95 -44 -171 57 -35 48 -92 72 -180 77 -65 4 -72 2 -46
-7 17 -6 38 -18 48 -27 11 -10 17 -11 17 -4 0 17 66 15 100 -3 87 -45 80 -149
-13 -184 -68 -26 -181 2 -276 69 -66 47 -91 92 -72 129 16 29 14 30 -18 18
-19 -7 -43 -7 -72 -1 -44 9 -44 9 -47 55 -3 39 0 47 16 51 14 4 22 18 27 47
10 60 25 60 26 -1 1 -72 17 -34 18 43 1 69 10 119 22 119 5 0 9 -10 9 -22 1
-20 2 -19 14 7 25 56 100 83 228 84 66 1 106 -5 162 -23z m-482 -69 c7 -12 0
-36 -17 -57 -7 -8 -17 -28 -22 -45 l-10 -30 -22 52 c-13 28 -31 59 -42 69 -10
9 -19 21 -19 26 0 12 123 -2 132 -15z m-2173 -25 c21 -7 13 -10 -45 -16 -234
-23 -636 -99 -813 -153 -108 -33 -122 -35 -205 -29 -141 11 -336 55 -336 76 0
12 113 60 187 79 75 19 258 46 373 55 102 7 815 -2 839 -12z m281 -77 c-104
-108 -320 -200 -547 -234 -99 -15 -312 -13 -405 3 -98 18 -212 56 -201 67 11
11 224 63 358 88 136 25 418 66 630 90 220 26 205 27 165 -14z m1037 -195
c-18 -22 -53 -54 -76 -71 -46 -33 -74 -85 -66 -122 4 -18 -8 -30 -69 -73 l-74
-51 -6 51 c-4 28 -13 85 -22 126 -15 72 -15 77 5 122 l20 48 63 -7 c35 -3 73
-13 86 -21 20 -13 25 -13 43 4 17 15 61 27 117 33 8 0 -2 -17 -21 -39z m180
-235 c41 -46 79 -79 97 -83 l28 -8 -46 -38 -46 -38 -40 32 c-22 17 -62 57 -90
88 l-50 56 32 33 c18 18 35 33 39 33 4 0 38 -34 76 -75z m-1752 13 c47 -70
241 -258 380 -366 l29 -23 -24 -44 c-13 -24 -38 -60 -55 -81 l-32 -38 -114 58
c-201 101 -376 230 -446 329 l-33 45 79 75 c79 75 87 79 167 85 15 2 30 -11
49 -40z m-355 -615 c75 -51 206 -112 329 -153 64 -22 116 -43 116 -47 0 -4
-16 -34 -34 -67 l-34 -59 -86 7 c-125 9 -253 44 -356 96 l-90 45 0 110 c0 61
4 127 8 148 l8 39 47 -44 c26 -24 67 -58 92 -75z m1064 -374 c30 -52 39 -128
19 -164 -9 -15 -12 -13 -28 12 -10 15 -48 66 -85 113 -37 47 -78 105 -90 130
-25 49 -60 146 -60 166 0 21 213 -203 244 -257z m-521 -81 c10 -56 37 -141 76
-238 68 -168 79 -216 61 -251 -18 -33 -29 -39 -73 -39 -61 0 -95 24 -125 88
-24 51 -27 68 -26 167 1 61 8 142 17 180 18 85 48 188 52 183 2 -2 10 -42 18
-90z m-390 -175 c115 -6 118 -7 112 -27 -4 -12 -9 -69 -12 -128 -3 -60 -10
-108 -15 -108 -16 0 -92 57 -135 102 -45 47 -123 155 -123 171 0 5 12 7 28 3
15 -3 80 -9 145 -13z"/>
<path d="M4310 2551 c-85 -26 -141 -87 -161 -175 -31 -140 79 -276 224 -276
42 0 111 30 146 63 124 119 78 335 -83 382 -54 16 -87 18 -126 6z m130 -63
c110 -56 130 -200 41 -289 -82 -83 -221 -53 -267 58 -36 84 -1 189 76 230 54
29 94 29 150 1z"/>
<path d="M3590 2330 l0 -220 120 0 c134 0 173 11 208 55 41 52 19 142 -39 160
-20 7 -20 8 5 34 56 58 42 140 -28 172 -32 14 -66 19 -153 19 l-113 0 0 -220z
m248 154 c16 -11 22 -25 22 -54 0 -57 -24 -70 -132 -70 l-88 0 0 70 0 70 88 0
c63 0 94 -4 110 -16z m-6 -184 c61 -17 77 -72 33 -115 -22 -23 -31 -25 -125
-25 l-100 0 0 75 0 75 78 0 c42 0 94 -5 114 -10z"/>
<path d="M4767 2538 c5 -7 38 -51 73 -98 35 -47 67 -90 72 -96 5 -7 -22 -51
-72 -117 -44 -59 -80 -109 -80 -112 0 -3 12 -5 28 -5 22 1 38 15 92 90 36 49
67 89 70 90 3 0 36 -40 73 -90 59 -79 71 -90 98 -90 36 0 38 -6 -54 114 -38
50 -71 96 -74 103 -3 6 29 57 71 112 42 55 76 103 76 106 0 3 -13 5 -28 5 -24
0 -38 -13 -90 -85 -34 -47 -66 -85 -70 -85 -4 1 -35 39 -70 85 -55 75 -66 85
-93 85 -24 0 -29 -3 -22 -12z"/>
<path d="M5360 2330 l0 -220 166 0 165 0 -3 23 c-3 21 -7 22 -135 25 l-133 3
0 74 0 75 121 0 c119 0 120 0 117 23 -3 21 -7 22 -120 25 l-118 3 0 69 0 70
130 0 130 0 0 25 0 25 -160 0 -160 0 0 -220z"/>
<path d="M3070 1814 c0 -741 0 -741 58 -847 37 -68 127 -156 194 -190 255
-129 550 -33 674 219 l39 78 3 403 3 403 -100 0 -100 0 -3 -382 c-3 -373 -4
-384 -25 -424 -12 -23 -43 -60 -68 -82 -141 -124 -356 -84 -443 82 l-27 51 -5
540 -5 540 -94 140 c-51 77 -95 142 -97 144 -2 2 -4 -301 -4 -675z"/>
<path d="M4655 1864 c-159 -34 -324 -153 -394 -283 -38 -72 -71 -195 -71 -265
1 -245 164 -464 404 -543 74 -24 98 -27 279 -31 l197 -4 0 -197 0 -197 96
-154 c53 -85 98 -157 100 -159 2 -2 4 305 4 682 l0 687 -182 0 -183 0 -62 -95
c-35 -52 -63 -97 -63 -100 0 -3 65 -5 145 -5 l145 0 0 -146 0 -146 -178 4
-178 3 -76 38 c-87 43 -138 94 -183 184 -28 54 -30 65 -30 173 0 112 1 117 34
178 39 73 91 121 171 160 54 26 60 27 285 32 l230 5 62 90 c34 50 62 93 63 98
0 4 -123 7 -272 6 -201 0 -292 -5 -343 -15z"/>
<path d="M5480 1310 l0 -570 100 0 100 0 0 570 0 570 -100 0 -100 0 0 -570z"/>
<path d="M5890 1310 l0 -570 293 0 294 0 67 100 66 100 -260 0 -260 0 0 470 0
470 -100 0 -100 0 0 -570z"/>
<path d="M6730 1310 l0 -570 100 0 100 0 0 570 0 570 -100 0 -100 0 0 -570z"/>
<path d="M7305 1866 c-71 -18 -107 -39 -153 -91 -105 -119 -90 -311 32 -423
61 -55 121 -79 228 -91 125 -14 182 -65 181 -162 -1 -57 -13 -80 -60 -116 -33
-26 -45 -28 -140 -31 l-104 -4 -60 -89 c-90 -134 -100 -122 97 -117 217 7 277
24 363 103 78 73 105 133 105 240 2 209 -128 342 -353 361 -101 9 -136 28
-151 84 -8 31 -8 50 1 77 17 52 69 73 185 73 l91 0 62 93 c33 51 61 96 61 100
0 12 -332 6 -385 -7z"/>
<path d="M7788 1783 l-67 -98 170 -3 169 -2 0 -470 0 -470 100 0 100 0 0 470
0 470 130 0 129 0 59 88 c32 48 62 93 66 100 6 9 -75 12 -392 12 l-398 0 -66
-97z"/>
<path d="M8770 1310 l0 -570 100 0 100 0 0 570 0 570 -100 0 -100 0 0 -570z"/>
<path d="M9635 1870 c-147 -22 -246 -71 -346 -170 -42 -41 -86 -95 -99 -120
-113 -222 -84 -466 76 -639 113 -123 253 -187 429 -198 l91 -6 42 94 c23 52
42 97 42 100 0 4 -55 8 -122 11 -112 3 -129 7 -190 35 -84 39 -142 97 -181
181 -27 57 -30 76 -30 152 0 76 4 95 30 151 42 91 83 133 171 176 l76 38 298
5 297 5 45 92 c24 50 42 94 39 97 -9 9 -609 5 -668 -4z"/>
<path d="M10523 1868 c-6 -7 -126 -263 -267 -568 l-256 -555 102 -3 c56 -1
107 -1 113 1 6 3 100 200 209 438 110 239 202 437 205 441 3 4 50 -88 103
-205 288 -630 503 -1100 569 -1242 l74 -160 3 237 2 238 -85 182 c-47 101
-190 413 -319 693 l-233 510 -105 3 c-76 2 -108 -1 -115 -10z"/>
<path d="M5687 493 c-4 -3 -7 -102 -7 -220 l0 -213 30 0 30 0 0 95 0 95 115 0
115 0 0 25 0 25 -115 0 -115 0 0 75 0 75 130 0 130 0 0 25 0 25 -153 0 c-85 0
-157 -3 -160 -7z"/>
<path d="M6311 458 c-10 -24 -55 -123 -99 -221 l-81 -177 29 0 c25 0 31 7 51
55 l23 55 120 0 121 0 24 -55 c20 -48 27 -55 52 -55 l28 0 -19 43 c-167 373
-176 392 -204 395 -22 3 -29 -3 -45 -40z m130 -215 c8 -23 8 -23 -86 -23 -52
0 -95 2 -95 4 0 2 16 39 36 82 20 44 41 90 46 104 10 24 13 20 50 -60 22 -47
44 -95 49 -107z"/>
<path d="M6790 280 l0 -220 126 0 c175 0 224 25 224 116 0 45 -26 88 -61 99
-19 6 -18 8 11 41 39 44 40 90 4 133 -33 40 -77 51 -201 51 l-103 0 0 -220z
m239 155 c32 -16 44 -46 31 -79 -15 -40 -38 -50 -131 -54 l-89 -4 0 76 0 76
80 0 c52 0 91 -5 109 -15z m35 -206 c17 -13 26 -30 26 -49 0 -19 -9 -36 -26
-49 -23 -18 -41 -21 -125 -21 l-99 0 0 70 0 70 99 0 c84 0 102 -3 125 -21z"/>
<path d="M7368 494 c-5 -4 -8 -103 -8 -221 l0 -213 30 0 30 0 0 85 0 85 58 0
58 0 63 -85 c54 -73 67 -85 92 -85 16 0 29 3 29 6 0 3 -27 41 -61 85 -34 44
-59 82 -57 83 1 1 18 9 37 16 90 36 96 180 8 227 -24 13 -63 18 -152 21 -66 2
-123 0 -127 -4z m268 -77 c32 -37 31 -77 -2 -111 -25 -24 -33 -26 -120 -26
l-94 0 0 86 0 86 96 -4 c91 -3 97 -5 120 -31z"/>
<path d="M7947 493 c-4 -3 -7 -102 -7 -220 l0 -213 30 0 30 0 0 220 0 220 -23
0 c-13 0 -27 -3 -30 -7z"/>
<path d="M8407 493 c-4 -7 -118 -257 -173 -381 l-24 -52 29 0 c25 0 31 6 51
55 l22 55 120 0 119 0 25 -55 c22 -48 29 -55 54 -55 l29 0 -56 122 c-31 68
-75 166 -99 218 -36 79 -47 96 -68 98 -13 2 -26 0 -29 -5z m104 -230 l18 -43
-94 0 c-52 0 -95 2 -95 4 0 2 12 30 26 62 15 33 35 79 47 104 l20 45 30 -65
c16 -36 38 -84 48 -107z"/>
<path d="M8870 281 l0 -221 25 0 25 0 2 171 3 171 135 -171 c103 -131 140
-171 157 -171 l23 0 0 220 0 220 -25 0 -25 0 -2 -172 -3 -173 -134 170 c-97
123 -140 171 -157 173 l-24 3 0 -220z"/>
<path d="M9487 494 c-4 -4 -7 -103 -7 -221 l0 -213 166 0 165 0 -3 23 c-3 21
-7 22 -135 25 l-133 3 0 69 0 69 118 3 c113 3 117 4 120 26 3 22 2 22 -117 22
l-121 0 0 75 0 75 136 0 c135 0 135 0 132 23 -3 22 -6 22 -159 25 -85 1 -158
-1 -162 -4z"/>
<path d="M10083 485 c-38 -16 -63 -60 -63 -111 0 -56 46 -96 140 -119 113 -28
149 -77 95 -130 -19 -20 -34 -25 -72 -25 -48 0 -124 28 -138 50 -5 8 -12 7
-26 -6 -15 -13 -16 -20 -7 -31 21 -26 90 -55 143 -60 100 -10 163 31 172 111
9 78 -25 110 -150 142 -95 23 -126 60 -97 114 22 42 123 45 181 6 24 -15 27
-15 43 2 14 16 14 21 3 30 -48 41 -162 54 -224 27z"/>
<path d="M10557 493 c-4 -3 -7 -102 -7 -220 l0 -213 166 0 165 0 -3 23 c-3 21
-7 22 -135 25 l-133 3 0 69 0 69 118 3 c113 3 117 4 120 26 3 22 2 22 -117 22
l-121 0 0 75 0 75 130 0 130 0 0 25 0 25 -153 0 c-85 0 -157 -3 -160 -7z"/>
<path d="M2050 410 l0 -80 465 0 465 0 0 80 0 80 -465 0 -465 0 0 -80z"/>
<path d="M3910 410 l0 -80 465 0 465 0 0 80 0 80 -465 0 -465 0 0 -80z"/>
</g>
</svg>
